# xmcd
#
# Track frame offsets:
#	150
#	13662
#	27342
#	38832
#	52645
#	76422
#	93180
#	108592
#	123512
#	139157
#	153220
#	168687
#	184027
#
# Disc length: 2706 seconds
#
# Revision: 2
# Processed by: cddbd v1.5.1PL0 Copyright (c) Steve Scherf et al.
# Submitted via: audiograbber 1.80
#
DISCID=9d0a900d
DTITLE=Various Artist - Country Line
DYEAR=1900
DGENRE=
TTITLE0=David Lee Murphy - Just Once
TTITLE1=Marty Stuart - Honky Tonkyn's What I Do Best
TTITLE2=Jack Ingram - Nothin' Wrong With That
TTITLE3=George Strait - Easy Come Easy Go
TTITLE4=Tracy Byrd - 4 To 1 In Atlanta
TTITLE5=Mark Chesnutt - Gonna Get A Life
TTITLE6=Tracy Byrd - Walking To Jerusalem
TTITLE7=Garry Allan - Send Back My Heart
TTITLE8=Big House - Cold Outside
TTITLE9=The Mavericks -  I Don't Care If You Love Me Anymore
TTITLE10=Franzier River - Tangled Up In Texas
TTITLE11=Reba McEntire - You Keep Me Hangin' On
TTITLE12=Roger Brown - Swing City
EXTD=
EXTT0=
EXTT1=(Duet With Travis Tritt)
EXTT2=
EXTT3=
EXTT4=
EXTT5=
EXTT6=(Dance Mix)
EXTT7=
EXTT8=
EXTT9=
EXTT10=
EXTT11=
EXTT12=
PLAYORDER=
